<mxfile host="app.diagrams.net" agent="Mozilla/5.0 (Windows NT 10.0; Win64; x64) AppleWebKit/537.36 (KHTML, like Gecko) Chrome/138.0.0.0 Safari/537.36 Edg/138.0.0.0" version="28.0.6">
  <diagram name="Page-1" id="WR1Q14Ie0cinxNNYh1pt">
    <mxGraphModel dx="1205" dy="666" grid="1" gridSize="10" guides="1" tooltips="1" connect="1" arrows="1" fold="1" page="1" pageScale="1" pageWidth="850" pageHeight="1100" math="0" shadow="0">
      <root>
        <mxCell id="0" />
        <mxCell id="1" parent="0" />
        <mxCell id="huKMkRBUCVqwmYcEdxTu-1" value="DARMS&amp;nbsp;" style="swimlane;whiteSpace=wrap;html=1;labelBackgroundColor=none;" parent="1" vertex="1">
          <mxGeometry x="110" y="50" width="430" height="580" as="geometry" />
        </mxCell>
        <mxCell id="huKMkRBUCVqwmYcEdxTu-5" value="Register / Login" style="ellipse;whiteSpace=wrap;html=1;labelBackgroundColor=none;" parent="huKMkRBUCVqwmYcEdxTu-1" vertex="1">
          <mxGeometry x="82" y="30" width="100" height="60" as="geometry" />
        </mxCell>
        <mxCell id="huKMkRBUCVqwmYcEdxTu-6" value="Browse Publications or Data" style="ellipse;whiteSpace=wrap;html=1;labelBackgroundColor=none;" parent="huKMkRBUCVqwmYcEdxTu-1" vertex="1">
          <mxGeometry x="82" y="100" width="100" height="60" as="geometry" />
        </mxCell>
        <mxCell id="huKMkRBUCVqwmYcEdxTu-7" value="Submit Data Request" style="ellipse;whiteSpace=wrap;html=1;labelBackgroundColor=none;" parent="huKMkRBUCVqwmYcEdxTu-1" vertex="1">
          <mxGeometry x="82" y="170" width="100" height="60" as="geometry" />
        </mxCell>
        <mxCell id="huKMkRBUCVqwmYcEdxTu-8" value="Process Payment" style="ellipse;whiteSpace=wrap;html=1;labelBackgroundColor=none;" parent="huKMkRBUCVqwmYcEdxTu-1" vertex="1">
          <mxGeometry x="91" y="410" width="100" height="60" as="geometry" />
        </mxCell>
        <mxCell id="huKMkRBUCVqwmYcEdxTu-9" value="Recieve Data" style="ellipse;whiteSpace=wrap;html=1;labelBackgroundColor=none;" parent="huKMkRBUCVqwmYcEdxTu-1" vertex="1">
          <mxGeometry x="91" y="500" width="100" height="60" as="geometry" />
        </mxCell>
        <mxCell id="avAPRepIunsd96Hresc7-10" value="Submit Required Documents" style="ellipse;whiteSpace=wrap;html=1;labelBackgroundColor=none;" vertex="1" parent="huKMkRBUCVqwmYcEdxTu-1">
          <mxGeometry x="82" y="260" width="100" height="60" as="geometry" />
        </mxCell>
        <mxCell id="avAPRepIunsd96Hresc7-11" value="&amp;lt;&amp;lt;extend&amp;gt;&amp;gt;" style="html=1;verticalAlign=bottom;labelBackgroundColor=none;endArrow=open;endFill=0;dashed=1;rounded=0;exitX=0.5;exitY=1;exitDx=0;exitDy=0;fontColor=default;" edge="1" parent="huKMkRBUCVqwmYcEdxTu-1" source="huKMkRBUCVqwmYcEdxTu-7" target="avAPRepIunsd96Hresc7-10">
          <mxGeometry width="160" relative="1" as="geometry">
            <mxPoint x="140" y="290" as="sourcePoint" />
            <mxPoint x="300" y="290" as="targetPoint" />
          </mxGeometry>
        </mxCell>
        <mxCell id="avAPRepIunsd96Hresc7-13" value="&amp;lt;&amp;lt;include&amp;gt;&amp;gt;" style="html=1;verticalAlign=bottom;labelBackgroundColor=none;endArrow=open;endFill=0;dashed=1;rounded=0;exitX=0.5;exitY=1;exitDx=0;exitDy=0;entryX=0.423;entryY=-0.011;entryDx=0;entryDy=0;entryPerimeter=0;fontColor=default;" edge="1" parent="huKMkRBUCVqwmYcEdxTu-1" source="avAPRepIunsd96Hresc7-10" target="huKMkRBUCVqwmYcEdxTu-8">
          <mxGeometry width="160" relative="1" as="geometry">
            <mxPoint x="140" y="330" as="sourcePoint" />
            <mxPoint x="300" y="330" as="targetPoint" />
          </mxGeometry>
        </mxCell>
        <mxCell id="avAPRepIunsd96Hresc7-14" value="Track Status" style="ellipse;whiteSpace=wrap;html=1;labelBackgroundColor=none;" vertex="1" parent="huKMkRBUCVqwmYcEdxTu-1">
          <mxGeometry x="200" y="350" width="100" height="60" as="geometry" />
        </mxCell>
        <mxCell id="avAPRepIunsd96Hresc7-25" value="Update Catalog" style="ellipse;whiteSpace=wrap;html=1;labelBackgroundColor=none;" vertex="1" parent="huKMkRBUCVqwmYcEdxTu-1">
          <mxGeometry x="270" y="130" width="100" height="60" as="geometry" />
        </mxCell>
        <mxCell id="avAPRepIunsd96Hresc7-26" value="Manage Users" style="ellipse;whiteSpace=wrap;html=1;labelBackgroundColor=none;" vertex="1" parent="huKMkRBUCVqwmYcEdxTu-1">
          <mxGeometry x="270" y="40" width="100" height="60" as="geometry" />
        </mxCell>
        <mxCell id="avAPRepIunsd96Hresc7-38" value="&amp;lt;&amp;lt;extend&amp;gt;&amp;gt;" style="html=1;verticalAlign=bottom;labelBackgroundColor=none;endArrow=open;endFill=0;dashed=1;rounded=0;exitX=0.5;exitY=1;exitDx=0;exitDy=0;entryX=0.5;entryY=0;entryDx=0;entryDy=0;" edge="1" parent="huKMkRBUCVqwmYcEdxTu-1" source="huKMkRBUCVqwmYcEdxTu-8" target="huKMkRBUCVqwmYcEdxTu-9">
          <mxGeometry width="160" relative="1" as="geometry">
            <mxPoint x="290" y="330" as="sourcePoint" />
            <mxPoint x="450" y="330" as="targetPoint" />
          </mxGeometry>
        </mxCell>
        <mxCell id="huKMkRBUCVqwmYcEdxTu-2" value="User" style="shape=umlActor;verticalLabelPosition=bottom;verticalAlign=top;html=1;outlineConnect=0;labelBackgroundColor=none;" parent="1" vertex="1">
          <mxGeometry x="50" y="290" width="30" height="60" as="geometry" />
        </mxCell>
        <mxCell id="huKMkRBUCVqwmYcEdxTu-3" value="Admin" style="shape=umlActor;verticalLabelPosition=bottom;verticalAlign=top;html=1;outlineConnect=0;labelBackgroundColor=none;" parent="1" vertex="1">
          <mxGeometry x="720" y="260" width="30" height="60" as="geometry" />
        </mxCell>
        <mxCell id="huKMkRBUCVqwmYcEdxTu-4" value="Payment Gateway" style="shape=umlActor;verticalLabelPosition=bottom;verticalAlign=top;html=1;outlineConnect=0;labelBackgroundColor=none;" parent="1" vertex="1">
          <mxGeometry x="720" y="440" width="30" height="60" as="geometry" />
        </mxCell>
        <mxCell id="avAPRepIunsd96Hresc7-1" value="" style="endArrow=none;html=1;rounded=0;exitX=1;exitY=0.3333333333333333;exitDx=0;exitDy=0;exitPerimeter=0;entryX=0;entryY=0.5;entryDx=0;entryDy=0;labelBackgroundColor=none;fontColor=default;" edge="1" parent="1" source="huKMkRBUCVqwmYcEdxTu-2" target="huKMkRBUCVqwmYcEdxTu-5">
          <mxGeometry width="50" height="50" relative="1" as="geometry">
            <mxPoint x="400" y="370" as="sourcePoint" />
            <mxPoint x="450" y="320" as="targetPoint" />
          </mxGeometry>
        </mxCell>
        <mxCell id="avAPRepIunsd96Hresc7-2" value="" style="endArrow=none;html=1;rounded=0;entryX=0;entryY=0.5;entryDx=0;entryDy=0;labelBackgroundColor=none;fontColor=default;" edge="1" parent="1" target="huKMkRBUCVqwmYcEdxTu-6">
          <mxGeometry width="50" height="50" relative="1" as="geometry">
            <mxPoint x="80" y="310" as="sourcePoint" />
            <mxPoint x="490" y="310" as="targetPoint" />
          </mxGeometry>
        </mxCell>
        <mxCell id="avAPRepIunsd96Hresc7-3" value="" style="endArrow=none;html=1;rounded=0;entryX=0;entryY=0.5;entryDx=0;entryDy=0;exitX=1;exitY=0.3333333333333333;exitDx=0;exitDy=0;exitPerimeter=0;labelBackgroundColor=none;fontColor=default;" edge="1" parent="1" source="huKMkRBUCVqwmYcEdxTu-2" target="huKMkRBUCVqwmYcEdxTu-7">
          <mxGeometry width="50" height="50" relative="1" as="geometry">
            <mxPoint x="420" y="310" as="sourcePoint" />
            <mxPoint x="640" y="300" as="targetPoint" />
          </mxGeometry>
        </mxCell>
        <mxCell id="avAPRepIunsd96Hresc7-4" value="" style="endArrow=none;html=1;rounded=0;entryX=0;entryY=0.5;entryDx=0;entryDy=0;exitX=1;exitY=0.3333333333333333;exitDx=0;exitDy=0;exitPerimeter=0;labelBackgroundColor=none;fontColor=default;" edge="1" parent="1" source="huKMkRBUCVqwmYcEdxTu-2" target="huKMkRBUCVqwmYcEdxTu-8">
          <mxGeometry width="50" height="50" relative="1" as="geometry">
            <mxPoint x="410" y="370" as="sourcePoint" />
            <mxPoint x="626" y="437" as="targetPoint" />
          </mxGeometry>
        </mxCell>
        <mxCell id="avAPRepIunsd96Hresc7-5" value="" style="endArrow=none;html=1;rounded=0;entryX=0.02;entryY=0.394;entryDx=0;entryDy=0;exitX=1;exitY=0.3333333333333333;exitDx=0;exitDy=0;exitPerimeter=0;entryPerimeter=0;labelBackgroundColor=none;fontColor=default;" edge="1" parent="1" source="huKMkRBUCVqwmYcEdxTu-2" target="huKMkRBUCVqwmYcEdxTu-9">
          <mxGeometry width="50" height="50" relative="1" as="geometry">
            <mxPoint x="410" y="480" as="sourcePoint" />
            <mxPoint x="630" y="655" as="targetPoint" />
          </mxGeometry>
        </mxCell>
        <mxCell id="avAPRepIunsd96Hresc7-6" value="" style="endArrow=none;html=1;rounded=0;entryX=0;entryY=0.3333333333333333;entryDx=0;entryDy=0;exitX=1;exitY=0.5;exitDx=0;exitDy=0;entryPerimeter=0;labelBackgroundColor=none;fontColor=default;" edge="1" parent="1" source="huKMkRBUCVqwmYcEdxTu-5" target="huKMkRBUCVqwmYcEdxTu-3">
          <mxGeometry width="50" height="50" relative="1" as="geometry">
            <mxPoint x="560" y="540" as="sourcePoint" />
            <mxPoint x="787" y="797" as="targetPoint" />
          </mxGeometry>
        </mxCell>
        <mxCell id="avAPRepIunsd96Hresc7-9" value="" style="endArrow=none;html=1;rounded=0;exitX=1;exitY=0.5;exitDx=0;exitDy=0;entryX=0;entryY=0.3333333333333333;entryDx=0;entryDy=0;entryPerimeter=0;labelBackgroundColor=none;fontColor=default;" edge="1" parent="1" source="huKMkRBUCVqwmYcEdxTu-8" target="huKMkRBUCVqwmYcEdxTu-4">
          <mxGeometry width="50" height="50" relative="1" as="geometry">
            <mxPoint x="600" y="510" as="sourcePoint" />
            <mxPoint x="790" y="490" as="targetPoint" />
          </mxGeometry>
        </mxCell>
        <mxCell id="avAPRepIunsd96Hresc7-27" value="" style="endArrow=none;html=1;rounded=0;entryX=0;entryY=0.3333333333333333;entryDx=0;entryDy=0;exitX=1;exitY=0.5;exitDx=0;exitDy=0;entryPerimeter=0;labelBackgroundColor=none;fontColor=default;" edge="1" parent="1" source="avAPRepIunsd96Hresc7-26" target="huKMkRBUCVqwmYcEdxTu-3">
          <mxGeometry width="50" height="50" relative="1" as="geometry">
            <mxPoint x="380" y="150" as="sourcePoint" />
            <mxPoint x="820" y="323" as="targetPoint" />
          </mxGeometry>
        </mxCell>
        <mxCell id="avAPRepIunsd96Hresc7-28" value="" style="endArrow=none;html=1;rounded=0;exitX=1;exitY=0.5;exitDx=0;exitDy=0;labelBackgroundColor=none;fontColor=default;" edge="1" parent="1" source="avAPRepIunsd96Hresc7-25">
          <mxGeometry width="50" height="50" relative="1" as="geometry">
            <mxPoint x="640" y="290" as="sourcePoint" />
            <mxPoint x="720" y="280" as="targetPoint" />
          </mxGeometry>
        </mxCell>
        <mxCell id="avAPRepIunsd96Hresc7-30" value="" style="endArrow=none;html=1;rounded=0;exitX=1;exitY=0.5;exitDx=0;exitDy=0;labelBackgroundColor=none;fontColor=default;" edge="1" parent="1" source="avAPRepIunsd96Hresc7-14">
          <mxGeometry width="50" height="50" relative="1" as="geometry">
            <mxPoint x="700" y="530" as="sourcePoint" />
            <mxPoint x="720" y="280" as="targetPoint" />
          </mxGeometry>
        </mxCell>
        <mxCell id="avAPRepIunsd96Hresc7-32" value="" style="endArrow=none;html=1;rounded=0;entryX=0.053;entryY=0.3;entryDx=0;entryDy=0;entryPerimeter=0;labelBackgroundColor=none;fontColor=default;" edge="1" parent="1" target="avAPRepIunsd96Hresc7-14">
          <mxGeometry width="50" height="50" relative="1" as="geometry">
            <mxPoint x="80" y="310" as="sourcePoint" />
            <mxPoint x="253" y="944" as="targetPoint" />
          </mxGeometry>
        </mxCell>
        <mxCell id="avAPRepIunsd96Hresc7-33" value="" style="endArrow=none;html=1;rounded=0;entryX=0;entryY=0;entryDx=0;entryDy=0;labelBackgroundColor=none;fontColor=default;" edge="1" parent="1" target="avAPRepIunsd96Hresc7-10">
          <mxGeometry width="50" height="50" relative="1" as="geometry">
            <mxPoint x="80" y="310" as="sourcePoint" />
            <mxPoint x="204" y="391" as="targetPoint" />
          </mxGeometry>
        </mxCell>
        <mxCell id="avAPRepIunsd96Hresc7-36" value="" style="endArrow=none;html=1;rounded=0;exitX=1;exitY=0.5;exitDx=0;exitDy=0;labelBackgroundColor=none;fontColor=default;" edge="1" parent="1" source="huKMkRBUCVqwmYcEdxTu-7">
          <mxGeometry width="50" height="50" relative="1" as="geometry">
            <mxPoint x="500" y="220" as="sourcePoint" />
            <mxPoint x="720" y="280" as="targetPoint" />
          </mxGeometry>
        </mxCell>
        <mxCell id="avAPRepIunsd96Hresc7-37" value="" style="endArrow=none;html=1;rounded=0;exitX=1;exitY=0.5;exitDx=0;exitDy=0;labelBackgroundColor=none;fontColor=default;" edge="1" parent="1" source="huKMkRBUCVqwmYcEdxTu-9">
          <mxGeometry width="50" height="50" relative="1" as="geometry">
            <mxPoint x="580" y="270" as="sourcePoint" />
            <mxPoint x="720" y="280" as="targetPoint" />
          </mxGeometry>
        </mxCell>
      </root>
    </mxGraphModel>
  </diagram>
</mxfile>
